<svg xmlns="http://www.w3.org/2000/svg" xmlns:xlink="http://www.w3.org/1999/xlink" width="480" zoomAndPan="magnify" viewBox="0 0 360 359.999987" height="480" preserveAspectRatio="xMidYMid meet" version="1.0"><defs><g/><clipPath id="06de82f7bf"><path d="M 0 0 L 360 0 L 360 360 L 0 360 Z M 0 0 " clip-rule="nonzero"/></clipPath><clipPath id="659fa05bf8"><rect x="0" width="360" y="0" height="360"/></clipPath><clipPath id="88d00503a2"><path d="M 0 212.351562 L 134.25 212.351562 L 134.25 360 L 0 360 Z M 0 212.351562 " clip-rule="nonzero"/></clipPath><clipPath id="8fdbb28493"><path d="M 82 313 L 134.25 313 L 134.25 360 L 82 360 Z M 82 313 " clip-rule="nonzero"/></clipPath><clipPath id="f3254d813b"><path d="M 0 212.351562 L 32 212.351562 L 32 257 L 0 257 Z M 0 212.351562 " clip-rule="nonzero"/></clipPath></defs><rect x="-36" width="432" fill="#ffffff" y="-35.999999" height="431.999984" fill-opacity="1"/><rect x="-36" width="432" fill="#ffffff" y="-35.999999" height="431.999984" fill-opacity="1"/><g><g clip-path="url(#659fa05bf8)"><g clip-path="url(#06de82f7bf)"><rect x="-79.2" width="518.4" fill="#ffffff" height="518.399981" y="-79.199997" fill-opacity="1"/></g></g></g><path stroke-linecap="butt" transform="matrix(0.75, 0, 0, 0.75, 0.0000067, -0.000000000000042633)" fill="none" stroke-linejoin="miter" d="M -0.00000893333 0.000000000000056843 L 480.000029 0.000000000000056843 L 480.000029 480.000038 L -0.00000893333 480.000038 Z M -0.00000893333 0.000000000000056843 " stroke="#6db3cf" stroke-width="32" stroke-opacity="1" stroke-miterlimit="4"/><g clip-path="url(#88d00503a2)"><path fill="#6db3cf" d="M 134.234375 360.101562 L 0.015625 360.101562 L 0.015625 212.351562 L 31.261719 238.742188 L 24.394531 295.804688 C 24.394531 295.804688 34.3125 331.726562 33.816406 332.058594 L 82.792969 313.933594 Z M 134.234375 360.101562 " fill-opacity="1" fill-rule="nonzero"/></g><path fill="#386093" d="M 24.394531 295.804688 L 0.015625 311.058594 L 0.015625 256.839844 Z M 24.394531 295.804688 " fill-opacity="1" fill-rule="nonzero"/><path fill="#6db3cf" d="M 24.394531 295.804688 L 0.015625 311.058594 C 0.015625 311.058594 33.324219 332.386719 33.816406 332.054688 C 34.3125 331.726562 24.394531 295.804688 24.394531 295.804688 Z M 24.394531 295.804688 " fill-opacity="1" fill-rule="nonzero"/><path fill="#f4b322" d="M 33.816406 332.054688 L 0.015625 360.101562 L 0.015625 311.058594 L 0.0195312 311.0625 L 0.0390625 311.074219 Z M 33.816406 332.054688 " fill-opacity="1" fill-rule="nonzero"/><path fill="#386093" d="M 33.816406 332.054688 L 86.867188 360.101562 L 0.015625 360.101562 Z M 33.816406 332.054688 " fill-opacity="1" fill-rule="nonzero"/><path fill="#6db3cf" d="M 33.816406 332.054688 L 82.792969 313.933594 L 86.867188 360.101562 Z M 33.816406 332.054688 " fill-opacity="1" fill-rule="nonzero"/><g clip-path="url(#8fdbb28493)"><path fill="#f4b322" d="M 82.792969 313.933594 L 134.234375 360.101562 L 86.867188 360.101562 Z M 82.792969 313.933594 " fill-opacity="1" fill-rule="nonzero"/></g><path fill="#f4b322" d="M 16.976562 283.949219 L 31.261719 238.742188 L 0.015625 256.839844 Z M 16.976562 283.949219 " fill-opacity="1" fill-rule="nonzero"/><path fill="#6db3cf" d="M 31.261719 238.742188 L 24.390625 295.804688 L 16.976562 283.949219 Z M 31.261719 238.742188 " fill-opacity="1" fill-rule="nonzero"/><g clip-path="url(#f3254d813b)"><path fill="#6db3cf" d="M 31.261719 238.742188 L 0.015625 212.351562 L 0.015625 256.839844 Z M 31.261719 238.742188 " fill-opacity="1" fill-rule="nonzero"/></g><g fill="#005e77" fill-opacity="1"><g transform="translate(18.84936, 60.347403)"><g><path d="M 19.25 0.71875 C 16.78125 0.71875 14.488281 0.28125 12.375 -0.59375 C 10.269531 -1.476562 8.429688 -2.710938 6.859375 -4.296875 C 5.296875 -5.878906 4.082031 -7.734375 3.21875 -9.859375 C 2.351562 -11.992188 1.921875 -14.289062 1.921875 -16.75 C 1.921875 -19.25 2.351562 -21.566406 3.21875 -23.703125 C 4.082031 -25.847656 5.296875 -27.710938 6.859375 -29.296875 C 8.429688 -30.890625 10.269531 -32.125 12.375 -33 C 14.488281 -33.875 16.78125 -34.3125 19.25 -34.3125 C 21.96875 -34.3125 24.460938 -33.75 26.734375 -32.625 C 29.003906 -31.507812 30.90625 -29.941406 32.4375 -27.921875 C 33.976562 -25.910156 35.003906 -23.578125 35.515625 -20.921875 L 28.21875 -20.921875 C 27.550781 -22.910156 26.414062 -24.488281 24.8125 -25.65625 C 23.21875 -26.820312 21.363281 -27.40625 19.25 -27.40625 C 17.363281 -27.40625 15.664062 -26.929688 14.15625 -25.984375 C 12.65625 -25.046875 11.460938 -23.773438 10.578125 -22.171875 C 9.703125 -20.578125 9.265625 -18.769531 9.265625 -16.75 C 9.265625 -14.738281 9.703125 -12.9375 10.578125 -11.34375 C 11.460938 -9.757812 12.65625 -8.503906 14.15625 -7.578125 C 15.664062 -6.648438 17.363281 -6.1875 19.25 -6.1875 C 21.457031 -6.1875 23.359375 -6.8125 24.953125 -8.0625 C 26.554688 -9.3125 27.660156 -11.007812 28.265625 -13.15625 L 35.609375 -13.15625 C 35.097656 -10.363281 34.082031 -7.925781 32.5625 -5.84375 C 31.039062 -3.769531 29.132812 -2.15625 26.84375 -1 C 24.5625 0.144531 22.03125 0.71875 19.25 0.71875 Z M 19.25 0.71875 "/></g></g></g><g fill="#005e77" fill-opacity="1"><g transform="translate(55.848335, 60.347403)"><g><path d="M 11.140625 -6.765625 L 24 -6.765625 L 24 0 L 3.84375 0 L 3.84375 -33.59375 L 11.140625 -33.59375 Z M 11.140625 -6.765625 "/></g></g></g><g fill="#005e77" fill-opacity="1"><g transform="translate(80.898226, 60.347403)"><g><path d="M 26.15625 0 L 23.8125 -6.390625 L 10.421875 -6.390625 L 8.109375 0 L 0.4375 0 L 13.578125 -33.59375 L 20.453125 -33.59375 L 34.03125 0 Z M 17.09375 -24.71875 L 12.71875 -12.71875 L 21.5 -12.71875 Z M 17.09375 -24.71875 "/></g></g></g><g fill="#005e77" fill-opacity="1"><g transform="translate(114.058028, 60.347403)"><g><path d="M 14.96875 0.671875 C 12.414062 0.671875 10.160156 0.207031 8.203125 -0.71875 C 6.253906 -1.644531 4.726562 -2.972656 3.625 -4.703125 C 2.519531 -6.429688 1.96875 -8.492188 1.96875 -10.890625 L 9.3125 -10.890625 C 9.3125 -9.265625 9.878906 -8.054688 11.015625 -7.265625 C 12.148438 -6.484375 13.453125 -6.09375 14.921875 -6.09375 C 15.847656 -6.09375 16.71875 -6.242188 17.53125 -6.546875 C 18.351562 -6.859375 19.03125 -7.304688 19.5625 -7.890625 C 20.09375 -8.484375 20.359375 -9.195312 20.359375 -10.03125 C 20.359375 -10.894531 20.050781 -11.570312 19.4375 -12.0625 C 18.832031 -12.5625 18.015625 -12.972656 16.984375 -13.296875 C 15.960938 -13.617188 14.84375 -13.921875 13.625 -14.203125 C 12.382812 -14.492188 11.109375 -14.847656 9.796875 -15.265625 C 8.484375 -15.679688 7.265625 -16.234375 6.140625 -16.921875 C 5.023438 -17.609375 4.128906 -18.535156 3.453125 -19.703125 C 2.785156 -20.867188 2.453125 -22.347656 2.453125 -24.140625 C 2.453125 -27.367188 3.546875 -29.851562 5.734375 -31.59375 C 7.929688 -33.34375 10.898438 -34.21875 14.640625 -34.21875 C 18.484375 -34.21875 21.457031 -33.25 23.5625 -31.3125 C 25.675781 -29.382812 26.734375 -26.753906 26.734375 -23.421875 L 19.53125 -23.421875 C 19.53125 -24.859375 19.019531 -25.921875 18 -26.609375 C 16.976562 -27.296875 15.796875 -27.640625 14.453125 -27.640625 C 13.265625 -27.640625 12.175781 -27.382812 11.1875 -26.875 C 10.195312 -26.363281 9.703125 -25.566406 9.703125 -24.484375 C 9.703125 -23.679688 9.992188 -23.046875 10.578125 -22.578125 C 11.171875 -22.117188 11.957031 -21.734375 12.9375 -21.421875 C 13.914062 -21.117188 14.992188 -20.828125 16.171875 -20.546875 C 17.453125 -20.222656 18.765625 -19.84375 20.109375 -19.40625 C 21.453125 -18.976562 22.695312 -18.394531 23.84375 -17.65625 C 25 -16.925781 25.9375 -15.953125 26.65625 -14.734375 C 27.382812 -13.515625 27.75 -11.976562 27.75 -10.125 C 27.75 -7.695312 27.160156 -5.679688 25.984375 -4.078125 C 24.816406 -2.484375 23.273438 -1.289062 21.359375 -0.5 C 19.441406 0.28125 17.3125 0.671875 14.96875 0.671875 Z M 14.96875 0.671875 "/></g></g></g><g fill="#005e77" fill-opacity="1"><g transform="translate(143.76278, 60.347403)"><g><path d="M 14.96875 0.671875 C 12.414062 0.671875 10.160156 0.207031 8.203125 -0.71875 C 6.253906 -1.644531 4.726562 -2.972656 3.625 -4.703125 C 2.519531 -6.429688 1.96875 -8.492188 1.96875 -10.890625 L 9.3125 -10.890625 C 9.3125 -9.265625 9.878906 -8.054688 11.015625 -7.265625 C 12.148438 -6.484375 13.453125 -6.09375 14.921875 -6.09375 C 15.847656 -6.09375 16.71875 -6.242188 17.53125 -6.546875 C 18.351562 -6.859375 19.03125 -7.304688 19.5625 -7.890625 C 20.09375 -8.484375 20.359375 -9.195312 20.359375 -10.03125 C 20.359375 -10.894531 20.050781 -11.570312 19.4375 -12.0625 C 18.832031 -12.5625 18.015625 -12.972656 16.984375 -13.296875 C 15.960938 -13.617188 14.84375 -13.921875 13.625 -14.203125 C 12.382812 -14.492188 11.109375 -14.847656 9.796875 -15.265625 C 8.484375 -15.679688 7.265625 -16.234375 6.140625 -16.921875 C 5.023438 -17.609375 4.128906 -18.535156 3.453125 -19.703125 C 2.785156 -20.867188 2.453125 -22.347656 2.453125 -24.140625 C 2.453125 -27.367188 3.546875 -29.851562 5.734375 -31.59375 C 7.929688 -33.34375 10.898438 -34.21875 14.640625 -34.21875 C 18.484375 -34.21875 21.457031 -33.25 23.5625 -31.3125 C 25.675781 -29.382812 26.734375 -26.753906 26.734375 -23.421875 L 19.53125 -23.421875 C 19.53125 -24.859375 19.019531 -25.921875 18 -26.609375 C 16.976562 -27.296875 15.796875 -27.640625 14.453125 -27.640625 C 13.265625 -27.640625 12.175781 -27.382812 11.1875 -26.875 C 10.195312 -26.363281 9.703125 -25.566406 9.703125 -24.484375 C 9.703125 -23.679688 9.992188 -23.046875 10.578125 -22.578125 C 11.171875 -22.117188 11.957031 -21.734375 12.9375 -21.421875 C 13.914062 -21.117188 14.992188 -20.828125 16.171875 -20.546875 C 17.453125 -20.222656 18.765625 -19.84375 20.109375 -19.40625 C 21.453125 -18.976562 22.695312 -18.394531 23.84375 -17.65625 C 25 -16.925781 25.9375 -15.953125 26.65625 -14.734375 C 27.382812 -13.515625 27.75 -11.976562 27.75 -10.125 C 27.75 -7.695312 27.160156 -5.679688 25.984375 -4.078125 C 24.816406 -2.484375 23.273438 -1.289062 21.359375 -0.5 C 19.441406 0.28125 17.3125 0.671875 14.96875 0.671875 Z M 14.96875 0.671875 "/></g></g></g><g fill="#005e77" fill-opacity="1"><g transform="translate(173.467532, 60.347403)"><g><path d="M 22.3125 0 L 15.796875 -11.46875 L 11.140625 -11.46875 L 11.140625 0 L 3.84375 0 L 3.84375 -33.59375 L 17.421875 -33.59375 C 19.660156 -33.59375 21.660156 -33.113281 23.421875 -32.15625 C 25.179688 -31.195312 26.570312 -29.882812 27.59375 -28.21875 C 28.625 -26.5625 29.140625 -24.644531 29.140625 -22.46875 C 29.140625 -20.289062 28.585938 -18.34375 27.484375 -16.625 C 26.378906 -14.914062 24.898438 -13.613281 23.046875 -12.71875 L 30.484375 0 Z M 11.140625 -26.875 L 11.140625 -18.1875 L 16.9375 -18.1875 C 18.445312 -18.1875 19.632812 -18.59375 20.5 -19.40625 C 21.363281 -20.226562 21.796875 -21.265625 21.796875 -22.515625 C 21.796875 -23.796875 21.363281 -24.84375 20.5 -25.65625 C 19.632812 -26.46875 18.445312 -26.875 16.9375 -26.875 Z M 11.140625 -26.875 "/></g></g></g><g fill="#005e77" fill-opacity="1"><g transform="translate(204.899838, 60.347403)"><g><path d="M 19.78125 0.71875 C 17.21875 0.71875 14.847656 0.28125 12.671875 -0.59375 C 10.492188 -1.476562 8.597656 -2.710938 6.984375 -4.296875 C 5.367188 -5.878906 4.113281 -7.734375 3.21875 -9.859375 C 2.320312 -11.992188 1.875 -14.304688 1.875 -16.796875 C 1.875 -19.296875 2.320312 -21.609375 3.21875 -23.734375 C 4.113281 -25.859375 5.367188 -27.710938 6.984375 -29.296875 C 8.597656 -30.890625 10.492188 -32.125 12.671875 -33 C 14.847656 -33.875 17.21875 -34.3125 19.78125 -34.3125 C 22.332031 -34.3125 24.695312 -33.875 26.875 -33 C 29.050781 -32.125 30.9375 -30.890625 32.53125 -29.296875 C 34.132812 -27.710938 35.382812 -25.859375 36.28125 -23.734375 C 37.175781 -21.609375 37.625 -19.296875 37.625 -16.796875 C 37.625 -14.304688 37.175781 -11.992188 36.28125 -9.859375 C 35.382812 -7.734375 34.132812 -5.878906 32.53125 -4.296875 C 30.9375 -2.710938 29.050781 -1.476562 26.875 -0.59375 C 24.695312 0.28125 22.332031 0.71875 19.78125 0.71875 Z M 19.78125 -6.140625 C 21.789062 -6.140625 23.585938 -6.601562 25.171875 -7.53125 C 26.753906 -8.457031 28 -9.722656 28.90625 -11.328125 C 29.820312 -12.929688 30.28125 -14.753906 30.28125 -16.796875 C 30.28125 -18.816406 29.820312 -20.632812 28.90625 -22.25 C 28 -23.863281 26.753906 -25.132812 25.171875 -26.0625 C 23.585938 -26.988281 21.789062 -27.453125 19.78125 -27.453125 C 17.789062 -27.453125 15.992188 -26.988281 14.390625 -26.0625 C 12.796875 -25.132812 11.535156 -23.863281 10.609375 -22.25 C 9.679688 -20.632812 9.21875 -18.816406 9.21875 -16.796875 C 9.21875 -14.785156 9.679688 -12.96875 10.609375 -11.34375 C 11.535156 -9.726562 12.796875 -8.457031 14.390625 -7.53125 C 15.992188 -6.601562 17.789062 -6.140625 19.78125 -6.140625 Z M 19.78125 -6.140625 "/></g></g></g><g fill="#005e77" fill-opacity="1"><g transform="translate(244.394196, 60.347403)"><g><path d="M 19.78125 0.71875 C 17.21875 0.71875 14.847656 0.28125 12.671875 -0.59375 C 10.492188 -1.476562 8.597656 -2.710938 6.984375 -4.296875 C 5.367188 -5.878906 4.113281 -7.734375 3.21875 -9.859375 C 2.320312 -11.992188 1.875 -14.304688 1.875 -16.796875 C 1.875 -19.296875 2.320312 -21.609375 3.21875 -23.734375 C 4.113281 -25.859375 5.367188 -27.710938 6.984375 -29.296875 C 8.597656 -30.890625 10.492188 -32.125 12.671875 -33 C 14.847656 -33.875 17.21875 -34.3125 19.78125 -34.3125 C 22.332031 -34.3125 24.695312 -33.875 26.875 -33 C 29.050781 -32.125 30.9375 -30.890625 32.53125 -29.296875 C 34.132812 -27.710938 35.382812 -25.859375 36.28125 -23.734375 C 37.175781 -21.609375 37.625 -19.296875 37.625 -16.796875 C 37.625 -14.304688 37.175781 -11.992188 36.28125 -9.859375 C 35.382812 -7.734375 34.132812 -5.878906 32.53125 -4.296875 C 30.9375 -2.710938 29.050781 -1.476562 26.875 -0.59375 C 24.695312 0.28125 22.332031 0.71875 19.78125 0.71875 Z M 19.78125 -6.140625 C 21.789062 -6.140625 23.585938 -6.601562 25.171875 -7.53125 C 26.753906 -8.457031 28 -9.722656 28.90625 -11.328125 C 29.820312 -12.929688 30.28125 -14.753906 30.28125 -16.796875 C 30.28125 -18.816406 29.820312 -20.632812 28.90625 -22.25 C 28 -23.863281 26.753906 -25.132812 25.171875 -26.0625 C 23.585938 -26.988281 21.789062 -27.453125 19.78125 -27.453125 C 17.789062 -27.453125 15.992188 -26.988281 14.390625 -26.0625 C 12.796875 -25.132812 11.535156 -23.863281 10.609375 -22.25 C 9.679688 -20.632812 9.21875 -18.816406 9.21875 -16.796875 C 9.21875 -14.785156 9.679688 -12.96875 10.609375 -11.34375 C 11.535156 -9.726562 12.796875 -8.457031 14.390625 -7.53125 C 15.992188 -6.601562 17.789062 -6.140625 19.78125 -6.140625 Z M 19.78125 -6.140625 "/></g></g></g><g fill="#005e77" fill-opacity="1"><g transform="translate(283.552602, 60.347403)"><g><path d="M 45.03125 0 L 37.625 0 L 34.3125 -21.9375 L 24.28125 -0.046875 L 22.515625 -0.046875 L 12.484375 -21.9375 L 9.171875 0 L 1.734375 0 L 7.015625 -33.59375 L 14.296875 -33.59375 L 23.375 -13.015625 L 32.5 -33.59375 L 39.796875 -33.59375 Z M 45.03125 0 "/></g></g></g><g fill="#005e77" fill-opacity="1"><g transform="translate(18.84936, 109.097399)"><g><path d="M 27.03125 -33.59375 L 27.03125 -26.828125 L 17.65625 -26.828125 L 17.65625 0 L 10.375 0 L 10.375 -26.828125 L 1.0625 -26.828125 L 1.0625 -33.59375 Z M 27.03125 -33.59375 "/></g></g></g><g fill="#fdb034" fill-opacity="1"><g transform="translate(45.825921, 109.097399)"><g><path d="M 19.78125 0.71875 C 17.21875 0.71875 14.847656 0.28125 12.671875 -0.59375 C 10.492188 -1.476562 8.597656 -2.710938 6.984375 -4.296875 C 5.367188 -5.878906 4.113281 -7.734375 3.21875 -9.859375 C 2.320312 -11.992188 1.875 -14.304688 1.875 -16.796875 C 1.875 -19.296875 2.320312 -21.609375 3.21875 -23.734375 C 4.113281 -25.859375 5.367188 -27.710938 6.984375 -29.296875 C 8.597656 -30.890625 10.492188 -32.125 12.671875 -33 C 14.847656 -33.875 17.21875 -34.3125 19.78125 -34.3125 C 22.332031 -34.3125 24.695312 -33.875 26.875 -33 C 29.050781 -32.125 30.9375 -30.890625 32.53125 -29.296875 C 34.132812 -27.710938 35.382812 -25.859375 36.28125 -23.734375 C 37.175781 -21.609375 37.625 -19.296875 37.625 -16.796875 C 37.625 -14.304688 37.175781 -11.992188 36.28125 -9.859375 C 35.382812 -7.734375 34.132812 -5.878906 32.53125 -4.296875 C 30.9375 -2.710938 29.050781 -1.476562 26.875 -0.59375 C 24.695312 0.28125 22.332031 0.71875 19.78125 0.71875 Z M 19.78125 -6.140625 C 21.789062 -6.140625 23.585938 -6.601562 25.171875 -7.53125 C 26.753906 -8.457031 28 -9.722656 28.90625 -11.328125 C 29.820312 -12.929688 30.28125 -14.753906 30.28125 -16.796875 C 30.28125 -18.816406 29.820312 -20.632812 28.90625 -22.25 C 28 -23.863281 26.753906 -25.132812 25.171875 -26.0625 C 23.585938 -26.988281 21.789062 -27.453125 19.78125 -27.453125 C 17.789062 -27.453125 15.992188 -26.988281 14.390625 -26.0625 C 12.796875 -25.132812 11.535156 -23.863281 10.609375 -22.25 C 9.679688 -20.632812 9.21875 -18.816406 9.21875 -16.796875 C 9.21875 -14.785156 9.679688 -12.96875 10.609375 -11.34375 C 11.535156 -9.726562 12.796875 -8.457031 14.390625 -7.53125 C 15.992188 -6.601562 17.789062 -6.140625 19.78125 -6.140625 Z M 19.78125 -6.140625 "/></g></g></g><g fill="#005e77" fill-opacity="1"><g transform="translate(85.329824, 109.097399)"><g><path d="M 31.875 0 L 22.984375 0 L 11.140625 -16.421875 L 11.140625 0 L 3.84375 0 L 3.84375 -33.59375 L 11.140625 -33.59375 L 11.140625 -18.09375 L 22.125 -33.59375 L 30.625 -33.59375 L 19.15625 -17.515625 Z M 31.875 0 "/></g></g></g><g fill="#005e77" fill-opacity="1"><g transform="translate(116.810149, 109.097399)"><g><path d="M 11.140625 -6.765625 L 24.53125 -6.765625 L 24.53125 0 L 3.84375 0 L 3.84375 -33.59375 L 24 -33.59375 L 24 -26.875 L 11.140625 -26.875 L 11.140625 -20.25 L 22.75 -20.25 L 22.75 -13.6875 L 11.140625 -13.6875 Z M 11.140625 -6.765625 "/></g></g></g><g fill="#005e77" fill-opacity="1"><g transform="translate(143.635601, 109.097399)"><g><path d="M 25.15625 -33.59375 L 32.25 -33.59375 L 32.25 0 L 26.203125 0 L 10.984375 -20.96875 L 10.984375 0 L 3.84375 0 L 3.84375 -33.59375 L 10.421875 -33.59375 L 25.15625 -13.109375 Z M 25.15625 -33.59375 "/></g></g></g><g fill="#005e77" fill-opacity="1"><g transform="translate(18.84936, 157.847395)"><g><path d="M 23.765625 -33.59375 L 31.015625 -33.59375 L 31.015625 0 L 23.765625 0 L 23.765625 -13.875 L 11.140625 -13.875 L 11.140625 0 L 3.84375 0 L 3.84375 -33.59375 L 11.140625 -33.59375 L 11.140625 -20.640625 L 23.765625 -20.640625 Z M 23.765625 -33.59375 "/></g></g></g><g fill="#005e77" fill-opacity="1"><g transform="translate(53.736843, 157.847395)"><g><path d="M 17.375 0.71875 C 14.71875 0.71875 12.347656 0.148438 10.265625 -0.984375 C 8.191406 -2.117188 6.546875 -3.6875 5.328125 -5.6875 C 4.109375 -7.6875 3.5 -10 3.5 -12.625 L 3.5 -33.59375 L 10.796875 -33.59375 L 10.796875 -12.953125 C 10.796875 -10.878906 11.410156 -9.222656 12.640625 -7.984375 C 13.878906 -6.753906 15.457031 -6.140625 17.375 -6.140625 C 19.320312 -6.140625 20.910156 -6.753906 22.140625 -7.984375 C 23.378906 -9.222656 24 -10.878906 24 -12.953125 L 24 -33.59375 L 31.25 -33.59375 L 31.25 -12.625 C 31.25 -10 30.644531 -7.6875 29.4375 -5.6875 C 28.238281 -3.6875 26.59375 -2.117188 24.5 -0.984375 C 22.40625 0.148438 20.03125 0.71875 17.375 0.71875 Z M 17.375 0.71875 "/></g></g></g><g fill="#005e77" fill-opacity="1"><g transform="translate(88.48037, 157.847395)"><g><path d="M 24.046875 -17.71875 C 25.515625 -16.945312 26.65625 -15.863281 27.46875 -14.46875 C 28.289062 -13.082031 28.703125 -11.492188 28.703125 -9.703125 C 28.703125 -7.910156 28.226562 -6.273438 27.28125 -4.796875 C 26.34375 -3.328125 25.066406 -2.160156 23.453125 -1.296875 C 21.835938 -0.429688 20.066406 0 18.140625 0 L 3.84375 0 L 3.84375 -33.59375 L 17.765625 -33.59375 C 19.679688 -33.59375 21.398438 -33.21875 22.921875 -32.46875 C 24.441406 -31.71875 25.640625 -30.6875 26.515625 -29.375 C 27.398438 -28.0625 27.84375 -26.585938 27.84375 -24.953125 C 27.84375 -23.515625 27.503906 -22.15625 26.828125 -20.875 C 26.160156 -19.59375 25.234375 -18.539062 24.046875 -17.71875 Z M 20.78125 -23.8125 C 20.78125 -24.863281 20.441406 -25.722656 19.765625 -26.390625 C 19.097656 -27.066406 18.191406 -27.40625 17.046875 -27.40625 L 10.984375 -27.40625 L 10.984375 -20.25 L 17.046875 -20.25 C 18.191406 -20.25 19.097656 -20.582031 19.765625 -21.25 C 20.441406 -21.925781 20.78125 -22.78125 20.78125 -23.8125 Z M 17.421875 -6.671875 C 18.640625 -6.671875 19.609375 -7.019531 20.328125 -7.71875 C 21.046875 -8.425781 21.40625 -9.34375 21.40625 -10.46875 C 21.40625 -11.550781 21.046875 -12.441406 20.328125 -13.140625 C 19.609375 -13.847656 18.640625 -14.203125 17.421875 -14.203125 L 10.984375 -14.203125 L 10.984375 -6.671875 Z M 17.421875 -6.671875 "/></g></g></g><g fill="#fdb034" fill-opacity="1"><g transform="translate(119.360922, 283.266496)"><g><path d="M 17.765625 0.796875 C 14.722656 0.796875 12.046875 0.25 9.734375 -0.84375 C 7.421875 -1.945312 5.609375 -3.523438 4.296875 -5.578125 C 2.984375 -7.628906 2.328125 -10.078125 2.328125 -12.921875 L 11.046875 -12.921875 C 11.046875 -10.984375 11.71875 -9.550781 13.0625 -8.625 C 14.40625 -7.695312 15.953125 -7.234375 17.703125 -7.234375 C 18.804688 -7.234375 19.835938 -7.410156 20.796875 -7.765625 C 21.765625 -8.128906 22.5625 -8.660156 23.1875 -9.359375 C 23.820312 -10.066406 24.140625 -10.910156 24.140625 -11.890625 C 24.140625 -12.921875 23.773438 -13.726562 23.046875 -14.3125 C 22.328125 -14.90625 21.359375 -15.390625 20.140625 -15.765625 C 18.929688 -16.148438 17.609375 -16.507812 16.171875 -16.84375 C 14.691406 -17.1875 13.171875 -17.601562 11.609375 -18.09375 C 10.054688 -18.59375 8.613281 -19.25 7.28125 -20.0625 C 5.957031 -20.875 4.894531 -21.972656 4.09375 -23.359375 C 3.300781 -24.742188 2.90625 -26.5 2.90625 -28.625 C 2.90625 -32.457031 4.203125 -35.40625 6.796875 -37.46875 C 9.398438 -39.539062 12.921875 -40.578125 17.359375 -40.578125 C 21.910156 -40.578125 25.4375 -39.429688 27.9375 -37.140625 C 30.445312 -34.847656 31.703125 -31.726562 31.703125 -27.78125 L 23.171875 -27.78125 C 23.171875 -29.488281 22.5625 -30.75 21.34375 -31.5625 C 20.132812 -32.375 18.734375 -32.78125 17.140625 -32.78125 C 15.734375 -32.78125 14.441406 -32.476562 13.265625 -31.875 C 12.085938 -31.269531 11.5 -30.320312 11.5 -29.03125 C 11.5 -28.082031 11.847656 -27.332031 12.546875 -26.78125 C 13.253906 -26.226562 14.1875 -25.769531 15.34375 -25.40625 C 16.5 -25.050781 17.78125 -24.703125 19.1875 -24.359375 C 20.695312 -23.984375 22.25 -23.535156 23.84375 -23.015625 C 25.4375 -22.503906 26.914062 -21.8125 28.28125 -20.9375 C 29.65625 -20.070312 30.769531 -18.914062 31.625 -17.46875 C 32.476562 -16.03125 32.90625 -14.210938 32.90625 -12.015625 C 32.90625 -9.128906 32.210938 -6.738281 30.828125 -4.84375 C 29.441406 -2.945312 27.609375 -1.53125 25.328125 -0.59375 C 23.054688 0.332031 20.535156 0.796875 17.765625 0.796875 Z M 17.765625 0.796875 "/></g></g></g><g fill="#fdb034" fill-opacity="1"><g transform="translate(152.60073, 283.266496)"><g><path d="M 37.734375 -39.84375 L 23.734375 -16.109375 L 23.734375 0 L 14.859375 0 L 14.859375 -16.171875 L 0.96875 -39.84375 L 10.125 -39.84375 L 19.359375 -23.90625 L 28.578125 -39.84375 Z M 37.734375 -39.84375 "/></g></g></g><g fill="#fdb034" fill-opacity="1"><g transform="translate(189.483307, 283.266496)"><g><path d="M 17.765625 0.796875 C 14.722656 0.796875 12.046875 0.25 9.734375 -0.84375 C 7.421875 -1.945312 5.609375 -3.523438 4.296875 -5.578125 C 2.984375 -7.628906 2.328125 -10.078125 2.328125 -12.921875 L 11.046875 -12.921875 C 11.046875 -10.984375 11.71875 -9.550781 13.0625 -8.625 C 14.40625 -7.695312 15.953125 -7.234375 17.703125 -7.234375 C 18.804688 -7.234375 19.835938 -7.410156 20.796875 -7.765625 C 21.765625 -8.128906 22.5625 -8.660156 23.1875 -9.359375 C 23.820312 -10.066406 24.140625 -10.910156 24.140625 -11.890625 C 24.140625 -12.921875 23.773438 -13.726562 23.046875 -14.3125 C 22.328125 -14.90625 21.359375 -15.390625 20.140625 -15.765625 C 18.929688 -16.148438 17.609375 -16.507812 16.171875 -16.84375 C 14.691406 -17.1875 13.171875 -17.601562 11.609375 -18.09375 C 10.054688 -18.59375 8.613281 -19.25 7.28125 -20.0625 C 5.957031 -20.875 4.894531 -21.972656 4.09375 -23.359375 C 3.300781 -24.742188 2.90625 -26.5 2.90625 -28.625 C 2.90625 -32.457031 4.203125 -35.40625 6.796875 -37.46875 C 9.398438 -39.539062 12.921875 -40.578125 17.359375 -40.578125 C 21.910156 -40.578125 25.4375 -39.429688 27.9375 -37.140625 C 30.445312 -34.847656 31.703125 -31.726562 31.703125 -27.78125 L 23.171875 -27.78125 C 23.171875 -29.488281 22.5625 -30.75 21.34375 -31.5625 C 20.132812 -32.375 18.734375 -32.78125 17.140625 -32.78125 C 15.734375 -32.78125 14.441406 -32.476562 13.265625 -31.875 C 12.085938 -31.269531 11.5 -30.320312 11.5 -29.03125 C 11.5 -28.082031 11.847656 -27.332031 12.546875 -26.78125 C 13.253906 -26.226562 14.1875 -25.769531 15.34375 -25.40625 C 16.5 -25.050781 17.78125 -24.703125 19.1875 -24.359375 C 20.695312 -23.984375 22.25 -23.535156 23.84375 -23.015625 C 25.4375 -22.503906 26.914062 -21.8125 28.28125 -20.9375 C 29.65625 -20.070312 30.769531 -18.914062 31.625 -17.46875 C 32.476562 -16.03125 32.90625 -14.210938 32.90625 -12.015625 C 32.90625 -9.128906 32.210938 -6.738281 30.828125 -4.84375 C 29.441406 -2.945312 27.609375 -1.53125 25.328125 -0.59375 C 23.054688 0.332031 20.535156 0.796875 17.765625 0.796875 Z M 17.765625 0.796875 "/></g></g></g><g fill="#fdb034" fill-opacity="1"><g transform="translate(223.975465, 283.266496)"><g><path d="M 32.046875 -39.84375 L 32.046875 -31.8125 L 20.953125 -31.8125 L 20.953125 0 L 12.296875 0 L 12.296875 -31.8125 L 1.25 -31.8125 L 1.25 -39.84375 Z M 32.046875 -39.84375 "/></g></g></g><g fill="#fdb034" fill-opacity="1"><g transform="translate(257.215526, 283.266496)"><g><path d="M 13.203125 -8.03125 L 29.09375 -8.03125 L 29.09375 0 L 4.546875 0 L 4.546875 -39.84375 L 28.46875 -39.84375 L 28.46875 -31.875 L 13.203125 -31.875 L 13.203125 -24.015625 L 26.984375 -24.015625 L 26.984375 -16.21875 L 13.203125 -16.21875 Z M 13.203125 -8.03125 "/></g></g></g><g fill="#fdb034" fill-opacity="1"><g transform="translate(289.032628, 283.266496)"><g><path d="M 53.390625 0 L 44.625 0 L 40.703125 -26.015625 L 28.796875 -0.0625 L 26.703125 -0.0625 L 14.796875 -26.015625 L 10.875 0 L 2.046875 0 L 8.3125 -39.84375 L 16.96875 -39.84375 L 27.71875 -15.421875 L 38.53125 -39.84375 L 47.1875 -39.84375 Z M 53.390625 0 "/></g></g></g><g fill="#09323d" fill-opacity="1"><g transform="translate(150.497638, 341.766491)"><g><path d="M 33.296875 0 L 29.3125 -9.5625 L 10.1875 -9.5625 L 6.265625 0 L 0.96875 0 L 17.25 -39.84375 L 21.921875 -39.84375 L 38.703125 0 Z M 19.6875 -32.953125 L 12.0625 -14.109375 L 27.4375 -14.109375 Z M 19.6875 -32.953125 "/></g></g></g><g fill="#09323d" fill-opacity="1"><g transform="translate(190.169415, 341.766491)"><g><path d="M 18.734375 -39.84375 C 21.648438 -39.84375 24.34375 -39.347656 26.8125 -38.359375 C 29.28125 -37.378906 31.414062 -35.992188 33.21875 -34.203125 C 35.019531 -32.421875 36.421875 -30.316406 37.421875 -27.890625 C 38.429688 -25.460938 38.9375 -22.804688 38.9375 -19.921875 C 38.9375 -17.035156 38.429688 -14.378906 37.421875 -11.953125 C 36.421875 -9.523438 35.019531 -7.414062 33.21875 -5.625 C 31.414062 -3.84375 29.28125 -2.457031 26.8125 -1.46875 C 24.34375 -0.488281 21.648438 0 18.734375 0 L 5.46875 0 L 5.46875 -39.84375 Z M 18.5625 -4.671875 C 21.550781 -4.671875 24.191406 -5.332031 26.484375 -6.65625 C 28.785156 -7.988281 30.582031 -9.800781 31.875 -12.09375 C 33.164062 -14.394531 33.8125 -17.003906 33.8125 -19.921875 C 33.8125 -22.878906 33.164062 -25.492188 31.875 -27.765625 C 30.582031 -30.046875 28.785156 -31.847656 26.484375 -33.171875 C 24.191406 -34.503906 21.550781 -35.171875 18.5625 -35.171875 L 10.421875 -35.171875 L 10.421875 -4.671875 Z M 18.5625 -4.671875 "/></g></g></g><g fill="#09323d" fill-opacity="1"><g transform="translate(231.548684, 341.766491)"><g><path d="M 51.90625 0 L 46.84375 0 L 41.671875 -31.140625 L 27.890625 -1.03125 L 26.578125 -1.03125 L 12.8125 -31.078125 L 7.625 0 L 2.5 0 L 9.21875 -39.84375 L 14 -39.84375 L 27.203125 -10.59375 L 40.421875 -39.84375 L 45.3125 -39.84375 Z M 51.90625 0 "/></g></g></g><g fill="#09323d" fill-opacity="1"><g transform="translate(286.019112, 341.766491)"><g><path d="M 5.46875 0 L 5.46875 -39.84375 L 10.421875 -39.84375 L 10.421875 0 Z M 5.46875 0 "/></g></g></g><g fill="#09323d" fill-opacity="1"><g transform="translate(301.899207, 341.766491)"><g><path d="M 32.328125 -39.84375 L 37.234375 -39.84375 L 37.234375 0 L 33.015625 0 L 10.296875 -31.078125 L 10.296875 0 L 5.46875 0 L 5.46875 -39.84375 L 9.96875 -39.84375 L 32.328125 -9.109375 Z M 32.328125 -39.84375 "/></g></g></g></svg>